# xmcd
#
# Track frame offsets:
#	150
#	16842
#	30185
#	49195
#	60945
#	77492
#	91285
#	106705
#	122107
#	139680
#	151560
#
# Disc length: 2291 seconds
#
# Revision: 3
# Processed by: cddbd v1.5.2PL0 Copyright (c) Steve Scherf et al.
# Submitted via: EasyCDDAExtractor 16.0.1.1
#
DISCID=6c08f10b
DTITLE=Carlene Carter - I Fell In Love
DYEAR=1990
DGENRE=Country
TTITLE0=I Fell In Love
TTITLE1=Come On Back
TTITLE2=The Sweetest Thing
TTITLE3=My Dixie Darlin'
TTITLE4=Goodnight Dallas
TTITLE5=One Love
TTITLE6=The Leavin' Side
TTITLE7=Guardian Angel
TTITLE8=Me And The Wildwood Rose
TTITLE9=You Are The One
TTITLE10=Easy From Now On
EXTD=YEAR: 1990 ID3G:   2
EXTT0=
EXTT1=
EXTT2=
EXTT3=
EXTT4=
EXTT5=
EXTT6=
EXTT7=
EXTT8=
EXTT9=
EXTT10=
PLAYORDER=
